<?xml version="1.0" standalone="no"?>
 <!DOCTYPE svg PUBLIC "-//W3C//DTD SVG 1.1//EN" 
 "http://www.w3.org/Graphics/SVG/1.1/DTD/svg11.dtd"> 
<svg
  xmlns:svg="http://www.w3.org/2000/svg"
  xmlns="http://www.w3.org/2000/svg"
  xmlns:xlink="http://www.w3.org/1999/xlink"
  version="1.1"
  width="21.0820mm" height="32.0040mm" viewBox="0.0000 0.0000 21.0820 32.0040">
<title>SVG Picture created as placebo-brd.svg date 2022/08/17 14:02:37 </title>
  <desc>Picture generated by PCBNEW </desc>
<g style="fill:#000000; fill-opacity:1.0000;stroke:#000000; stroke-opacity:1.0000;
stroke-linecap:round; stroke-linejoin:round;"
 transform="translate(0 0) scale(1 1)">
</g>
<g style="fill:#000000; fill-opacity:0.0; 
stroke:#000000; stroke-width:0.0000; stroke-opacity:1; 
stroke-linecap:round; stroke-linejoin:round;">
</g>
<g style="fill:#000000; fill-opacity:0.0; 
stroke:#000000; stroke-width:0.1000; stroke-opacity:1; 
stroke-linecap:round; stroke-linejoin:round;">
<path d="M1.0669 2.6670
L1.0669 25.6030
" />
<path d="M3.8100 28.3970
L3.8088 28.9276
" />
<path d="M4.8235 29.9944
L16.5588 29.9937
" />
<path d="M17.6255 28.4226
L17.6255 28.9789
" />
<path d="M18.4384 0.9369
L2.7941 0.9369
" />
<path d="M20.1656 2.6641
L20.1655 25.7055
" />
<path d="M2.7941 0.9369 A1.7272 1.7272 0.0 0 0 1.0669 2.6670" />
<path d="M1.0669 25.6030 A1.7272 1.7272 0.0 0 0 2.7940 27.3302" />
<path d="M3.8100 28.3970 A1.0171 1.0171 0.0 0 0 2.7941 27.3302" />
<path d="M3.8088 28.9276 A1.0160 1.0160 0.0 0 0 4.8235 29.9944" />
<path d="M18.5420 27.4320 A1.0210 1.0210 0.0 0 0 17.6255 28.4226" />
<path d="M16.5588 29.9937 A1.0160 1.0160 0.0 0 0 17.6255 28.9789" />
<path d="M20.1655 2.6641 A1.7272 1.7272 0.0 0 0 18.4384 0.9369" />
<path d="M18.5420 27.4320 A1.7298 1.7298 0.0 0 0 20.1655 25.7055" />
<g >
</g>
<g >
</g>
<g >
</g>
<g >
</g>
<g >
</g>
<g >
</g>
<g >
</g>
<g >
</g>
<g >
</g>
<g >
</g>
<g >
</g>
<g >
</g>
<g >
</g>
<g >
</g>
<g >
</g>
<g >
</g>
<g >
</g>
<g >
</g>
<g >
</g>
<g >
</g>
<g >
</g>
<g >
</g>
</g> 
</svg>
